<svg width="18" height="16" viewBox="0 0 18 16" fill="none" xmlns="http://www.w3.org/2000/svg">
<path d="M0.253906 7.30176C0.253906 7.60205 0.488281 7.8877 0.883789 7.8877C1.08887 7.8877 1.25732 7.77783 1.41113 7.65332L8.74268 1.50098C8.90381 1.35449 9.10156 1.35449 9.2627 1.50098L16.5942 7.65332C16.7407 7.77783 16.9092 7.8877 17.1143 7.8877C17.4585 7.8877 17.7368 7.67529 17.7368 7.32373C17.7368 7.104 17.6636 6.95752 17.5098 6.82568L15.459 5.09717V2.16748C15.459 1.84521 15.2539 1.64014 14.9316 1.64014H14.1479C13.833 1.64014 13.6206 1.84521 13.6206 2.16748V3.55176L9.88525 0.416992C9.34326 -0.0444336 8.66943 -0.0444336 8.12012 0.416992L0.488281 6.82568C0.327148 6.95752 0.253906 7.1333 0.253906 7.30176ZM2.53906 13.8423C2.53906 14.853 3.1543 15.4536 4.18701 15.4536H13.8184C14.8511 15.4536 15.459 14.853 15.459 13.8423V8.03418L9.43848 2.98779C9.16016 2.75342 8.83057 2.76074 8.55957 2.98779L2.53906 8.03418V13.8423ZM10.8887 14.2744H7.10938V9.43311C7.10938 9.09619 7.33643 8.87646 7.67334 8.87646H10.332C10.6689 8.87646 10.8887 9.09619 10.8887 9.43311V14.2744Z" fill="white"/>
</svg>
