<svg width="26" height="25" viewBox="0 0 26 25" fill="none" xmlns="http://www.w3.org/2000/svg">
<path d="M13 24.6445C19.6211 24.6445 25.1055 19.1719 25.1055 12.5391C25.1055 5.91797 19.6211 0.433594 12.9883 0.433594C6.36719 0.433594 0.894531 5.91797 0.894531 12.5391C0.894531 19.1719 6.37891 24.6445 13 24.6445ZM13 22.2656C7.60938 22.2656 3.28516 17.9297 3.28516 12.5391C3.28516 7.14844 7.59766 2.82422 12.9883 2.82422C18.3789 2.82422 22.7148 7.14844 22.7266 12.5391C22.7266 17.9297 18.3906 22.2656 13 22.2656ZM7.53906 14.2969C8.51172 14.2969 9.30859 13.5117 9.30859 12.5273C9.30859 11.5547 8.5 10.7695 7.53906 10.7695C6.56641 10.7695 5.76953 11.5547 5.76953 12.5273C5.76953 13.5117 6.56641 14.2969 7.53906 14.2969ZM12.9883 14.2969C13.9609 14.2969 14.7461 13.5117 14.7461 12.5273C14.7461 11.5547 13.9609 10.7695 12.9883 10.7695C12.0156 10.7695 11.2188 11.5547 11.2188 12.5273C11.2188 13.5117 12.0156 14.2969 12.9883 14.2969ZM18.4258 14.2969C19.4102 14.2969 20.1953 13.5117 20.1953 12.5273C20.1953 11.5547 19.4102 10.7695 18.4258 10.7695C17.4531 10.7695 16.668 11.5547 16.668 12.5273C16.668 13.5117 17.4531 14.2969 18.4258 14.2969Z" fill="white"/>
</svg>
